<svg xmlns="http://www.w3.org/2000/svg" width="208" height="352" viewBox="0 0 208 352">
    <g fill="#727272" fill-rule="evenodd">
        <path d="M0 0H2V2H0zM14 0H16V2H14zM28 0H30V2H28zM42 0H44V2H42zM56 0H58V2H56zM70 0H72V2H70zM82 0H84V2H82zM96 0H98V2H96zM0 14H2V16H0zM14 14H16V16H14zM28 14H30V16H28zM42 14H44V16H42zM56 14H58V16H56zM70 14H72V16H70zM82 14H84V16H82zM96 14H98V16H96zM0 28H2V30H0zM14 28H16V30H14zM28 28H30V30H28zM42 28H44V30H42zM56 28H58V30H56zM70 28H72V30H70zM82 28H84V30H82zM96 28H98V30H96zM0 42H2V44H0zM14 42H16V44H14zM28 42H30V44H28zM42 42H44V44H42zM56 42H58V44H56zM70 42H72V44H70zM82 42H84V44H82zM96 42H98V44H96zM0 56H2V58H0zM14 56H16V58H14zM28 56H30V58H28zM42 56H44V58H42zM56 56H58V58H56zM70 56H72V58H70zM82 56H84V58H82zM96 56H98V58H96zM0 70H2V72H0zM14 70H16V72H14zM28 70H30V72H28zM42 70H44V72H42zM56 70H58V72H56zM70 70H72V72H70zM82 70H84V72H82zM96 70H98V72H96zM0 84H2V86H0zM14 84H16V86H14zM28 84H30V86H28zM42 84H44V86H42zM56 84H58V86H56zM70 84H72V86H70zM82 84H84V86H82zM96 84H98V86H96zM0 98H2V100H0zM14 98H16V100H14zM28 98H30V100H28zM42 98H44V100H42zM56 98H58V100H56zM70 98H72V100H70zM82 98H84V100H82zM96 98H98V100H96zM0 112H2V114H0zM14 112H16V114H14zM28 112H30V114H28zM42 112H44V114H42zM56 112H58V114H56zM70 112H72V114H70zM82 112H84V114H82zM96 112H98V114H96zM0 126H2V128H0zM14 126H16V128H14zM28 126H30V128H28zM42 126H44V128H42zM56 126H58V128H56zM70 126H72V128H70zM82 126H84V128H82zM96 126H98V128H96zM0 140H2V142H0zM14 140H16V142H14zM28 140H30V142H28zM42 140H44V142H42zM56 140H58V142H56zM70 140H72V142H70zM82 140H84V142H82zM96 140H98V142H96zM0 154H2V156H0zM14 154H16V156H14zM28 154H30V156H28zM42 154H44V156H42zM56 154H58V156H56zM70 154H72V156H70zM82 154H84V156H82zM96 154H98V156H96zM0 168H2V170H0zM14 168H16V170H14zM28 168H30V170H28zM42 168H44V170H42zM56 168H58V170H56zM70 168H72V170H70zM82 168H84V170H82zM96 168H98V170H96zM0 182H2V184H0zM14 182H16V184H14zM28 182H30V184H28zM42 182H44V184H42zM56 182H58V184H56zM70 182H72V184H70zM82 182H84V184H82zM96 182H98V184H96zM0 196H2V198H0zM14 196H16V198H14zM28 196H30V198H28zM42 196H44V198H42zM56 196H58V198H56zM70 196H72V198H70zM82 196H84V198H82zM96 196H98V198H96zM0 210H2V212H0zM14 210H16V212H14zM28 210H30V212H28zM42 210H44V212H42zM56 210H58V212H56zM70 210H72V212H70zM82 210H84V212H82zM96 210H98V212H96zM0 224H2V226H0zM14 224H16V226H14zM28 224H30V226H28zM42 224H44V226H42zM56 224H58V226H56zM70 224H72V226H70zM82 224H84V226H82zM96 224H98V226H96zM0 238H2V240H0zM14 238H16V240H14zM28 238H30V240H28zM42 238H44V240H42zM56 238H58V240H56zM70 238H72V240H70zM82 238H84V240H82zM96 238H98V240H96zM0 252H2V254H0zM14 252H16V254H14zM28 252H30V254H28zM42 252H44V254H42zM56 252H58V254H56zM70 252H72V254H70zM82 252H84V254H82zM96 252H98V254H96zM0 266H2V268H0zM14 266H16V268H14zM28 266H30V268H28zM42 266H44V268H42zM56 266H58V268H56zM70 266H72V268H70zM82 266H84V268H82zM96 266H98V268H96zM0 280H2V282H0zM14 280H16V282H14zM28 280H30V282H28zM42 280H44V282H42zM56 280H58V282H56zM70 280H72V282H70zM82 280H84V282H82zM96 280H98V282H96zM0 294H2V296H0zM14 294H16V296H14zM28 294H30V296H28zM42 294H44V296H42zM56 294H58V296H56zM70 294H72V296H70zM82 294H84V296H82zM96 294H98V296H96zM0 308H2V310H0zM14 308H16V310H14zM28 308H30V310H28zM42 308H44V310H42zM56 308H58V310H56zM70 308H72V310H70zM82 308H84V310H82zM96 308H98V310H96zM0 322H2V324H0zM14 322H16V324H14zM28 322H30V324H28zM42 322H44V324H42zM56 322H58V324H56zM70 322H72V324H70zM82 322H84V324H82zM96 322H98V324H96zM0 336H2V338H0zM14 336H16V338H14zM28 336H30V338H28zM42 336H44V338H42zM56 336H58V338H56zM70 336H72V338H70zM82 336H84V338H82zM96 336H98V338H96zM0 350H2V352H0zM14 350H16V352H14zM28 350H30V352H28zM42 350H44V352H42zM56 350H58V352H56zM70 350H72V352H70zM82 350H84V352H82zM96 350H98V352H96zM110 0H112V2H110zM124 0H126V2H124zM138 0H140V2H138zM152 0H154V2H152zM166 0H168V2H166zM180 0H182V2H180zM192 0H194V2H192zM206 0H208V2H206zM110 14H112V16H110zM124 14H126V16H124zM138 14H140V16H138zM152 14H154V16H152zM166 14H168V16H166zM180 14H182V16H180zM192 14H194V16H192zM206 14H208V16H206zM110 28H112V30H110zM124 28H126V30H124zM138 28H140V30H138zM152 28H154V30H152zM166 28H168V30H166zM180 28H182V30H180zM192 28H194V30H192zM206 28H208V30H206zM110 42H112V44H110zM124 42H126V44H124zM138 42H140V44H138zM152 42H154V44H152zM166 42H168V44H166zM180 42H182V44H180zM192 42H194V44H192zM206 42H208V44H206zM110 56H112V58H110zM124 56H126V58H124zM138 56H140V58H138zM152 56H154V58H152zM166 56H168V58H166zM180 56H182V58H180zM192 56H194V58H192zM206 56H208V58H206zM110 70H112V72H110zM124 70H126V72H124zM138 70H140V72H138zM152 70H154V72H152zM166 70H168V72H166zM180 70H182V72H180zM192 70H194V72H192zM206 70H208V72H206zM110 84H112V86H110zM124 84H126V86H124zM138 84H140V86H138zM152 84H154V86H152zM166 84H168V86H166zM180 84H182V86H180zM192 84H194V86H192zM206 84H208V86H206zM110 98H112V100H110zM124 98H126V100H124zM138 98H140V100H138zM152 98H154V100H152zM166 98H168V100H166zM180 98H182V100H180zM192 98H194V100H192zM206 98H208V100H206zM110 112H112V114H110zM124 112H126V114H124zM138 112H140V114H138zM152 112H154V114H152zM166 112H168V114H166zM180 112H182V114H180zM192 112H194V114H192zM206 112H208V114H206zM110 126H112V128H110zM124 126H126V128H124zM138 126H140V128H138zM152 126H154V128H152zM166 126H168V128H166zM180 126H182V128H180zM192 126H194V128H192zM206 126H208V128H206zM110 140H112V142H110zM124 140H126V142H124zM138 140H140V142H138zM152 140H154V142H152zM166 140H168V142H166zM180 140H182V142H180zM192 140H194V142H192zM206 140H208V142H206zM110 154H112V156H110zM124 154H126V156H124zM138 154H140V156H138zM152 154H154V156H152zM166 154H168V156H166zM180 154H182V156H180zM192 154H194V156H192zM206 154H208V156H206zM110 168H112V170H110zM124 168H126V170H124zM138 168H140V170H138zM152 168H154V170H152zM166 168H168V170H166zM180 168H182V170H180zM192 168H194V170H192zM206 168H208V170H206zM110 182H112V184H110zM124 182H126V184H124zM138 182H140V184H138zM152 182H154V184H152zM166 182H168V184H166zM180 182H182V184H180zM192 182H194V184H192zM206 182H208V184H206zM110 196H112V198H110zM124 196H126V198H124zM138 196H140V198H138zM152 196H154V198H152zM166 196H168V198H166zM180 196H182V198H180zM192 196H194V198H192zM206 196H208V198H206zM110 210H112V212H110zM124 210H126V212H124zM138 210H140V212H138zM152 210H154V212H152zM166 210H168V212H166zM180 210H182V212H180zM192 210H194V212H192zM206 210H208V212H206zM110 224H112V226H110zM124 224H126V226H124zM138 224H140V226H138zM152 224H154V226H152zM166 224H168V226H166zM180 224H182V226H180zM192 224H194V226H192zM206 224H208V226H206zM110 238H112V240H110zM124 238H126V240H124zM138 238H140V240H138zM152 238H154V240H152zM166 238H168V240H166zM180 238H182V240H180zM192 238H194V240H192zM206 238H208V240H206zM110 252H112V254H110zM124 252H126V254H124zM138 252H140V254H138zM152 252H154V254H152zM166 252H168V254H166zM180 252H182V254H180zM192 252H194V254H192zM206 252H208V254H206zM110 266H112V268H110zM124 266H126V268H124zM138 266H140V268H138zM152 266H154V268H152zM166 266H168V268H166zM180 266H182V268H180zM192 266H194V268H192zM206 266H208V268H206zM110 280H112V282H110zM124 280H126V282H124zM138 280H140V282H138zM152 280H154V282H152zM166 280H168V282H166zM180 280H182V282H180zM192 280H194V282H192zM206 280H208V282H206zM110 294H112V296H110zM124 294H126V296H124zM138 294H140V296H138zM152 294H154V296H152zM166 294H168V296H166zM180 294H182V296H180zM192 294H194V296H192zM206 294H208V296H206zM110 308H112V310H110zM124 308H126V310H124zM138 308H140V310H138zM152 308H154V310H152zM166 308H168V310H166zM180 308H182V310H180zM192 308H194V310H192zM206 308H208V310H206zM110 322H112V324H110zM124 322H126V324H124zM138 322H140V324H138zM152 322H154V324H152zM166 322H168V324H166zM180 322H182V324H180zM192 322H194V324H192zM206 322H208V324H206zM110 336H112V338H110zM124 336H126V338H124zM138 336H140V338H138zM152 336H154V338H152zM166 336H168V338H166zM180 336H182V338H180zM192 336H194V338H192zM206 336H208V338H206zM110 350H112V352H110zM124 350H126V352H124zM138 350H140V352H138zM152 350H154V352H152zM166 350H168V352H166zM180 350H182V352H180zM192 350H194V352H192zM206 350H208V352H206z"/>
    </g>
</svg>
