<svg xmlns="http://www.w3.org/2000/svg" width="40" height="58" viewBox="0 0 40 58">
    <g fill="none" fill-rule="evenodd" stroke="#000" transform="translate(1 1)">
        <path stroke-width="1.72" d="M37.802 8.126v46.132c0 .784-.635 1.419-1.419 1.419H1.637c-.784 0-1.42-.635-1.42-1.42V1.638c0-.784.636-1.42 1.42-1.42H28.29c.318.002.626.11.875.308l8.112 6.504c.331.268.524.671.525 1.097h0z"/>
        <rect width="3.443" height="16.877" x="7.081" y="34.855" fill-rule="nonzero" stroke-width="1.29" rx=".667"/>
        <rect width="3.443" height="16.877" x="20.651" y="34.855" fill-rule="nonzero" stroke-width="1.29" rx=".544"/>
        <rect width="3.443" height="11.503" x="27.207" y="40.323" fill-rule="nonzero" stroke-width="1.29" rx=".804"/>
        <rect width="3.443" height="30.447" x="13.769" y="21.38" fill-rule="nonzero" stroke-width="1.29" rx=".587"/>
        <path stroke-width="1.72" d="M29.643 1.201c-.974 3.557-1.977 7.427-2.28 8.618-.016.086.01.174.07.238.06.063.146.095.233.084L37.883 8.6"/>
    </g>
</svg>
